<svg width="320" height="654" viewBox="0 0 320 654" fill="none" xmlns="http://www.w3.org/2000/svg">
  <defs>
    <linearGradient id="frameGradient" x1="0%" y1="0%" x2="100%" y2="100%">
      <stop offset="0%" stop-color="#2a2a2e"/>
      <stop offset="50%" stop-color="#1a1a1c"/>
      <stop offset="100%" stop-color="#2a2a2e"/>
    </linearGradient>
    <linearGradient id="buttonGradient" x1="0%" y1="0%" x2="100%" y2="0%">
      <stop offset="0%" stop-color="#4a4a4e"/>
      <stop offset="50%" stop-color="#3a3a3c"/>
      <stop offset="100%" stop-color="#4a4a4e"/>
    </linearGradient>
  </defs>

  <!-- Outer frame border only (no fill in screen area) -->
  <path d="M54 2 H266 A52 52 0 0 1 318 54 V600 A52 52 0 0 1 266 652 H54 A52 52 0 0 1 2 600 V54 A52 52 0 0 1 54 2 Z M56 12 A44 44 0 0 0 12 56 V598 A44 44 0 0 0 56 642 H264 A44 44 0 0 0 308 598 V56 A44 44 0 0 0 264 12 H56 Z" fill="url(#frameGradient)"/>

  <!-- Dynamic Island -->
  <rect x="110" y="22" width="100" height="34" rx="17" ry="17" fill="#000"/>
  <rect x="111" y="23" width="98" height="32" rx="16" ry="16" fill="#1a1a1a"/>

  <!-- Side buttons - Left -->
  <rect x="0" y="140" width="3" height="32" rx="1.5" fill="url(#buttonGradient)"/>
  <rect x="0" y="200" width="3" height="56" rx="1.5" fill="url(#buttonGradient)"/>
  <rect x="0" y="264" width="3" height="56" rx="1.5" fill="url(#buttonGradient)"/>

  <!-- Side button - Right (Power) -->
  <rect x="317" y="210" width="3" height="80" rx="1.5" fill="url(#buttonGradient)"/>

  <!-- Home indicator -->
  <rect x="110" y="632" width="100" height="5" rx="2.5" fill="#3a3a3c"/>
</svg>